<svg xmlns="http://www.w3.org/2000/svg" xmlns:xlink="http://www.w3.org/1999/xlink" xmlns:inkscape="http://www.inkscape.org/namespaces/inkscape" version="1.1" width="1191" height="842" viewBox="0 0 1191 842">
<defs>
<clipPath id="clip_0">
<path transform="matrix(.06,0,0,-.06,0,842)" d="M9264 6682H11553V8736H9264V6682"/>
</clipPath>
</defs>
<g clip-path="url(#clip_0)">
<g inkscape:groupmode="layer" inkscape:label="Visible">
<path transform="matrix(.06,0,0,-.06,0,842)" stroke-width="24" stroke-linecap="round" stroke-linejoin="round" fill="none" stroke="#000000" d="M9690.889 7623.567C9691.488 7623.816 9692.054 7624.0915 9692.582 7624.3908"/>
<path transform="matrix(.06,0,0,-.06,0,842)" stroke-width="24" stroke-linecap="round" stroke-linejoin="round" fill="none" stroke="#000000" d="M9642 7567 9857 7443"/>
<path transform="matrix(-.051962399,.029998199,.029998199,.051962399,591.45,392.51)" stroke-width="24" stroke-linecap="round" stroke-linejoin="round" fill="none" stroke="#000000" d="M24.39518 42.07285C17.09266 54.66706 6.90279 60.95698-3.37501 59.21461"/>
<path transform="matrix(-.051962399,.029998199,.029998199,.051962399,591.45,392.51)" stroke-width="24" stroke-linecap="round" stroke-linejoin="round" fill="none" stroke="#000000" d="M18.03122 31.46625C8.07285 48.84459-8.07285 48.84459-18.03122 31.46625"/>
</g>
<g inkscape:groupmode="layer" inkscape:label="Visible Narrow">
<path transform="matrix(.06,0,0,-.06,0,842)" stroke-width="12" stroke-linecap="round" stroke-linejoin="round" fill="none" stroke="#000000" d="M9887 7472 9859 7456"/>
<path transform="matrix(.06,0,0,-.06,0,842)" stroke-width="12" stroke-linecap="round" stroke-linejoin="round" fill="none" stroke="#000000" d="M9654 7697 9643 7690"/>
</g>
<g inkscape:groupmode="layer" inkscape:label="Visible">
<path transform="matrix(.06,0,0,-.06,0,842)" stroke-width="24" stroke-linecap="round" stroke-linejoin="round" fill="none" stroke="#000000" d="M9857 7565 9642 7689"/>
</g>
<g inkscape:groupmode="layer" inkscape:label="Visible Narrow">
<path transform="matrix(.06,0,0,-.06,0,842)" stroke-width="12" stroke-linecap="round" stroke-linejoin="round" fill="none" stroke="#000000" d="M9871 7573 9858 7566"/>
</g>
<g inkscape:groupmode="layer" inkscape:label="Visible">
<path transform="matrix(.051962399,-.029998199,-.029998199,-.051962399,591.45,390.95)" stroke-width="24" stroke-linecap="round" stroke-linejoin="round" fill="none" stroke="#000000" d="M28.68203-33.06591C37.8302-9.46334 36.03526 21.99794 24.39518 42.07285"/>
<path transform="matrix(-.051962399,.029998199,.029998199,.051962399,578.55,383.51)" stroke-width="24" stroke-linecap="round" stroke-linejoin="round" fill="none" stroke="#000000" d="M-24.39518-42.07285C-10.9221-65.30905 10.9221-65.30905 24.39518-42.07285"/>
<path transform="matrix(.06,0,0,-.06,0,842)" stroke-width="24" stroke-linecap="round" stroke-linejoin="round" fill="none" stroke="#000000" d="M9600 7640V7665"/>
<path transform="matrix(-.051962399,.029998199,.029998199,.051962399,578.55,385.01)" stroke-width="24" stroke-linecap="round" stroke-linejoin="round" fill="none" stroke="#000000" d="M24.39518-42.07285C37.86827-18.83666 37.86827 18.83666 24.39518 42.07285"/>
<path transform="matrix(.06,0,0,-.06,0,842)" stroke-width="24" stroke-linecap="round" stroke-linejoin="round" fill="none" stroke="#000000" d="M9642 7579 9857 7455"/>
<path transform="matrix(-.051962399,.029998199,.029998199,.051962399,578.55,385.01)" stroke-width="24" stroke-linecap="round" stroke-linejoin="round" fill="none" stroke="#000000" d="M18.03122-31.46625C27.98959-14.08792 27.98959 14.08792 18.03122 31.46625"/>
<path transform="matrix(.06,0,0,-.06,0,842)" stroke-width="24" stroke-linecap="round" stroke-linejoin="round" fill="none" stroke="#000000" d="M9610 7634V7659"/>
<path transform="matrix(-.051962399,.029998199,.029998199,.051962399,578.55,383.51)" stroke-width="24" stroke-linecap="round" stroke-linejoin="round" fill="none" stroke="#000000" d="M-18.03122-31.46625C-8.07285-48.84459 8.07285-48.84459 18.03122-31.46625"/>
<path transform="matrix(.06,0,0,-.06,0,842)" stroke-width="24" stroke-linecap="round" stroke-linejoin="round" fill="none" stroke="#000000" d="M9857 7554 9642 7678"/>
<path transform="matrix(.051962399,-.029998199,-.029998199,-.051962399,591.45,390.95)" stroke-width="24" stroke-linecap="round" stroke-linejoin="round" fill="none" stroke="#000000" d="M18.03122-31.46625C27.98959-14.08792 27.98959 14.08792 18.03122 31.46625"/>
<path transform="matrix(.06,0,0,-.06,0,842)" stroke-width="24" stroke-linecap="round" stroke-linejoin="round" fill="none" stroke="#000000" d="M9889 7473V7499"/>
<path transform="matrix(.06,0,0,-.06,0,842)" stroke-width="24" stroke-linecap="round" stroke-linejoin="round" fill="none" stroke="#000000" d="M9727.782 7599.611C9730.319 7598.142 9734.068 7597.626 9737.476 7598.277"/>
<path transform="matrix(.06,0,0,-.06,0,842)" stroke-width="24" stroke-linecap="round" stroke-linejoin="round" fill="none" stroke="#000000" d="M9702 7614 9727 7599"/>
</g>
<g inkscape:groupmode="layer" inkscape:label="Visible Narrow">
<path transform="matrix(.06,0,0,-.06,0,842)" stroke-width="12" stroke-linecap="round" stroke-linejoin="round" fill="none" stroke="#000000" d="M9699 7612 9645 7581"/>
</g>
<g inkscape:groupmode="layer" inkscape:label="Visible">
<path transform="matrix(-.051962399,.029998199,.029998199,.051962399,582.14999,382.97)" stroke-width="24" stroke-linecap="round" stroke-linejoin="round" fill="none" stroke="#000000" d="M21.27284-24.53811C23.43617-18.82664 24.81516-12.3211 25.3025-5.52772"/>
<path transform="matrix(-.051962399,.029998199,.029998199,.051962399,582.14999,382.97)" stroke-width="24" stroke-linecap="round" stroke-linejoin="round" fill="none" stroke="#000000" d="M24.36549 13.12573C23.14102 20.04787 20.96664 26.34365 18.03122 31.46625"/>
</g>
<g inkscape:groupmode="layer" inkscape:label="Visible Narrow">
<path transform="matrix(.06,0,0,-.06,0,842)" stroke-width="12" stroke-linecap="round" stroke-linejoin="round" fill="none" stroke="#000000" d="M9661 7663 9613 7636"/>
</g>
<g inkscape:groupmode="layer" inkscape:label="Visible">
<path transform="matrix(.06,0,0,-.06,0,842)" stroke-width="24" stroke-linecap="round" stroke-linejoin="round" fill="none" stroke="#000000" d="M9674 7659V7650"/>
</g>
<g inkscape:groupmode="layer" inkscape:label="Visible Narrow">
<path transform="matrix(.06,0,0,-.06,0,842)" stroke-width="12" stroke-linecap="round" stroke-linejoin="round" fill="none" stroke="#000000" d="M9640 7677 9612 7660"/>
</g>
<g inkscape:groupmode="layer" inkscape:label="Visible">
<path transform="matrix(.06,0,0,-.06,0,842)" stroke-width="24" stroke-linecap="round" stroke-linejoin="round" fill="none" stroke="#000000" d="M9889 7442 9887 7440"/>
<path transform="matrix(.06,0,0,-.06,0,842)" stroke-width="24" stroke-linecap="round" stroke-linejoin="round" fill="none" stroke="#000000" d="M9640 7708 9612 7692"/>
<path transform="matrix(.06,0,0,-.06,0,842)" stroke-width="24" stroke-linecap="round" stroke-linejoin="round" fill="none" stroke="#000000" d="M9887 7512H9885"/>
<path transform="matrix(.06,0,0,-.06,0,842)" stroke-width="24" stroke-linecap="round" stroke-linejoin="round" fill="none" stroke="#000000" d="M9679 7656 9677 7648V7632L9877 7517V7532L9677 7648"/>
<path transform="matrix(.06,0,0,-.06,0,842)" stroke-width="24" stroke-linecap="round" stroke-linejoin="round" fill="none" stroke="#000000" d="M9877 7517 9885 7512"/>
<path transform="matrix(.06,0,0,-.06,0,842)" stroke-width="24" stroke-linecap="round" stroke-linejoin="round" fill="none" stroke="#000000" d="M9878 7533 9877 7532"/>
</g>
<g inkscape:groupmode="layer" inkscape:label="Visible Narrow">
<path transform="matrix(-.06,-0,0,.06,624.51,376.37004)" stroke-width="12" stroke-linecap="round" stroke-linejoin="round" fill="none" stroke="#000000" d="M980.2866 89.53705C903.931 367.68843 488.21788 572.5 0 572.5-488.21788 572.5-903.931 367.68843-980.2866 89.53705"/>
<path transform="matrix(.06,0,0,-.06,0,842)" stroke-width="12" stroke-linecap="round" stroke-linejoin="round" fill="none" stroke="#000000" d="M9562 7612 9563 7606 9565 7600 9566 7594 9568 7588 9571 7582 9573 7576 9576 7570 9579 7565 9582 7559 9585 7554 9588 7549 9592 7544 9595 7540 9599 7536 9603 7532 9606 7529"/>
<path transform="matrix(-.06,-0,0,.06,624.57,367.31)" stroke-width="12" stroke-linecap="round" stroke-linejoin="round" fill="none" stroke="#000000" d="M992.1269 15.69593C987.62557 110.36579 942.47927 202.91286 860.733 285.04496"/>
<path transform="matrix(.06,0,0,-.06,0,842)" stroke-width="12" stroke-linecap="round" stroke-linejoin="round" fill="none" stroke="#000000" d="M9984.378 7394.1779C10275.028 7314.7058 10614.425 7321.4089 10894.972 7412.1628 11175.518 7502.916 11362.423 7666.4655 11396.436 7850.9626"/>
<path transform="matrix(.06,0,0,-.06,0,842)" stroke-width="12" stroke-linecap="round" stroke-linejoin="round" fill="none" stroke="#000000" d="M9824 7403 9829 7401 9835 7400 9840 7399 9845 7398H9850 9855L9860 7399 9864 7400 9869 7401 9873 7403 9877 7405 9880 7408 9883 7411 9886 7415 9889 7418 9891 7422"/>
<path transform="matrix(.06,0,0,-.06,0,842)" stroke-width="12" stroke-linecap="round" stroke-linejoin="round" fill="none" stroke="#000000" d="M9615.474 7522.2526C9671.371 7479.407 9737.427 7441.3049 9811.704 7409.062"/>
<path transform="matrix(.06,0,0,-.06,0,842)" stroke-width="12" stroke-linecap="round" stroke-linejoin="round" fill="none" stroke="#000000" d="M10015.288 7877.165C10233.005 7751.612 10585.995 7751.612 10803.712 7877.165 11021.43 8002.7189 11021.43 8206.281 10803.712 8331.835 10585.995 8457.389 10233.005 8457.389 10015.288 8331.835 9797.57 8206.281 9797.57 8002.7189 10015.288 7877.165"/>
</g>
<g inkscape:groupmode="layer" inkscape:label="Visible">
<path transform="matrix(.06,0,0,-.06,0,842)" stroke-width="24" stroke-linecap="round" stroke-linejoin="round" fill="none" stroke="#000000" d="M10836.934 8352.126C10848.844 8345.291 10868.156 8345.291 10880.066 8352.126 10891.978 8358.96 10891.978 8370.04 10880.066 8376.874 10868.156 8383.709 10848.844 8383.709 10836.934 8376.874 10825.022 8370.04 10825.022 8358.96 10836.934 8352.126"/>
</g>
<g inkscape:groupmode="layer" inkscape:label="Visible Narrow">
<path transform="matrix(-.06,-0,0,.06,624.57,355.73)" stroke-width="12" stroke-linecap="round" stroke-linejoin="round" fill="none" stroke="#000000" d="M-534.9263-308.6521C-239.49465-479.11598 239.49465-479.11598 534.9263-308.6521 830.3579-138.18825 830.3579 138.18825 534.9263 308.6521 239.49465 479.11598-239.49465 479.11598-534.9263 308.6521-830.3579 138.18825-830.3579-138.18825-534.9263-308.6521"/>
<path transform="matrix(.06,0,0,-.06,0,842)" stroke-width="12" stroke-linecap="round" stroke-linejoin="round" fill="none" stroke="#000000" d="M9645 7718 9642 7719 9639 7721 9637 7722 9634 7723 9631 7724 9628 7725H9625 9622 9619 9615L9612 7724 9609 7723 9606 7722 9603 7721 9600 7719 9597 7718 9594 7716 9592 7714 9589 7711 9586 7709 9584 7706 9581 7704 9579 7701 9577 7698 9575 7694 9573 7691 9571 7688 9570 7684 9568 7681 9567 7677 9566 7673 9565 7669 9564 7662 9562 7654 9561 7647 9560 7640V7636 7633 7630 7626 7623L9561 7619V7616L9562 7612"/>
<path transform="matrix(.06,0,0,-.06,0,842)" stroke-width="12" stroke-linecap="round" stroke-linejoin="round" fill="none" stroke="#000000" d="M9654.511 7710.6257C9709.757 7667.5524 9775.752 7629.444 9850.347 7597.543"/>
<path transform="matrix(.06,0,0,-.06,0,842)" stroke-width="12" stroke-linecap="round" stroke-linejoin="round" fill="none" stroke="#000000" d="M9891 7422 9892 7425 9893 7428 9894 7430V7433L9895 7436 9896 7439V7442L9897 7446V7453L9899 7460 9900 7468 9901 7475 9902 7479 9903 7483V7487L9904 7492V7496 7500 7504 7509 7513 7518L9903 7522V7526L9902 7531 9901 7535 9900 7539 9899 7543 9898 7547 9897 7551 9895 7555 9893 7559 9892 7563 9890 7566 9888 7570 9885 7573 9883 7576 9880 7579 9877 7582 9875 7584 9872 7587 9869 7589 9865 7591 9862 7592"/>
</g>
<g inkscape:groupmode="layer" inkscape:label="Visible">
<path transform="matrix(.06,0,0,-.06,0,842)" stroke-width="24" stroke-linecap="round" stroke-linejoin="round" fill="none" stroke="#000000" d="M10845 8182V8173L10851 8176"/>
<path transform="matrix(-.06,-0,0,.06,624.57,359.21003)" stroke-width="24" stroke-linecap="round" stroke-linejoin="round" fill="none" stroke="#000000" d="M-496.44868-4.12003C-495.29765-50.30122-474.81526-95.63729-436.74693-136.26483"/>
<path transform="matrix(.06,0,0,-.06,0,842)" stroke-width="24" stroke-linecap="round" stroke-linejoin="round" fill="none" stroke="#000000" d="M10142.548 8288.064C10001.695 8236.235 9915.454 8147.007 9913.052 8050.62"/>
</g>
<g inkscape:groupmode="layer" inkscape:label="Visible Narrow">
<path transform="matrix(.06,0,0,-.06,0,842)" stroke-width="12" stroke-linecap="round" stroke-linejoin="round" fill="none" stroke="#000000" d="M10899.891 8099.3078C10861.693 8238.505 10653.731 8341 10409.5 8341 10165.269 8341 9957.307 8238.505 9919.109 8099.3078"/>
</g>
<g inkscape:groupmode="layer" inkscape:label="Visible">
<path transform="matrix(-.06,-0,0,.06,624.51,359.75)" stroke-width="24" stroke-linecap="round" stroke-linejoin="round" fill="none" stroke="#000000" d="M-436.74693-136.26483C-415.75117-158.67209-389.67048-179.36353-359.19456-197.79196"/>
</g>
<g inkscape:groupmode="layer" inkscape:label="Visible Narrow">
<path transform="matrix(.06,0,0,-.06,0,842)" stroke-width="12" stroke-linecap="round" stroke-linejoin="round" fill="none" stroke="#000000" d="M9583 7665 9584 7668 9585 7672 9586 7675 9588 7678 9589 7681 9591 7684 9592 7687 9594 7689 9596 7692 9598 7694 9600 7697 9603 7699 9605 7701 9607 7703 9610 7704 9612 7706"/>
<path transform="matrix(.06,0,0,-.06,0,842)" stroke-width="12" stroke-linecap="round" stroke-linejoin="round" fill="none" stroke="#000000" d="M9584 7666 9600 7675"/>
<path transform="matrix(.06,0,0,-.06,0,842)" stroke-width="12" stroke-linecap="round" stroke-linejoin="round" fill="none" stroke="#000000" d="M9579 7637 9580 7644 9581 7651 9582 7658 9583 7665"/>
<path transform="matrix(.06,0,0,-.06,0,842)" stroke-width="12" stroke-linecap="round" stroke-linejoin="round" fill="none" stroke="#000000" d="M9599 7649 9580 7638"/>
<path transform="matrix(.06,0,0,-.06,0,842)" stroke-width="12" stroke-linecap="round" stroke-linejoin="round" fill="none" stroke="#000000" d="M9616 7543 9613 7546 9610 7549 9607 7552 9604 7556 9601 7560 9598 7564 9596 7569 9593 7573 9591 7578 9589 7583 9587 7588 9585 7594 9583 7599 9582 7604 9581 7610 9580 7615"/>
<path transform="matrix(.06,0,0,-.06,0,842)" stroke-width="12" stroke-linecap="round" stroke-linejoin="round" fill="none" stroke="#000000" d="M9618 7544 9649 7562"/>
<path transform="matrix(.06,0,0,-.06,0,842)" stroke-width="12" stroke-linecap="round" stroke-linejoin="round" fill="none" stroke="#000000" d="M9580 7615 9579 7620 9578 7626V7632L9579 7637"/>
<path transform="matrix(.06,0,0,-.06,0,842)" stroke-width="12" stroke-linecap="round" stroke-linejoin="round" fill="none" stroke="#000000" d="M9874 7420 9872 7418 9870 7417 9867 7416H9865L9862 7415H9860L9857 7414H9854 9851 9849L9846 7415H9843L9840 7416 9837 7417H9834L9831 7419"/>
<path transform="matrix(.06,0,0,-.06,0,842)" stroke-width="12" stroke-linecap="round" stroke-linejoin="round" fill="none" stroke="#000000" d="M9865 7438 9833 7420"/>
<path transform="matrix(.06,0,0,-.06,0,842)" stroke-width="12" stroke-linecap="round" stroke-linejoin="round" fill="none" stroke="#000000" d="M9625.0629 7535.86C9680.284 7493.4645 9745.541 7455.761 9818.919 7423.856"/>
<path transform="matrix(-.055455,-.022907999,-.022907999,.055455,592.05,386.57)" stroke-width="12" stroke-linecap="round" stroke-linejoin="round" fill="none" stroke="#000000" d="M5.46735 1.25112C5.17954 6.74987 3.06021 11.04111 .42248 11.46602"/>
<path transform="matrix(.0466926,.03768,.03768,-.0466926,579.14999,379.13)" stroke-width="12" stroke-linecap="round" stroke-linejoin="round" fill="none" stroke="#000000" d="M-7.23385-3.03637C-6.39176-7.75318-3.69629-11.13748-.51444-11.47292"/>
<path transform="matrix(.0586788,.0125226,.0125226,-.0586788,574.52999,381.77003)" stroke-width="12" stroke-linecap="round" stroke-linejoin="round" fill="none" stroke="#000000" d="M-8.45623-3.04972C-6.31543-3.95863-3.31345-4.48294-.1549-4.49959 3.00364-4.51624 6.04063-4.02376 8.24321-3.13775"/>
<path transform="matrix(.059672398,.0062586,.0062586,-.059672398,574.23,383.45)" stroke-width="12" stroke-linecap="round" stroke-linejoin="round" fill="none" stroke="#000000" d="M-8.85525-3.5091C-6.83375-4.67593-3.89521-5.39219-.73325-5.48881 2.42872-5.58543 5.53395-5.05385 7.8495-4.01954"/>
<path transform="matrix(.058917598,-.0113442,-.0113442,-.058917598,574.35,385.01)" stroke-width="12" stroke-linecap="round" stroke-linejoin="round" fill="none" stroke="#000000" d="M-9.78885-1.83692C-8.14274-2.64945-5.47763-3.2221-2.4109-3.42222 .65583-3.62234 3.85807-3.43256 6.454-2.89684"/>
<path transform="matrix(-.0470232,-.0372666,-.0372666,.0470232,576.99,389.99003)" stroke-width="12" stroke-linecap="round" stroke-linejoin="round" fill="none" stroke="#000000" d="M6.12235-6.64251C8.25317-2.02502 7.87764 4.28285 5.23679 8.23244"/>
<path transform="matrix(-.055306198,-.023263799,-.023263799,.055306198,589.89,397.43003)" stroke-width="12" stroke-linecap="round" stroke-linejoin="round" fill="none" stroke="#000000" d="M3.93505-8.03448C5.82524-3.98716 6.02696 2.33344 4.41072 6.87001"/>
<path transform="matrix(-.054808197,-.024414599,-.024414599,.054808197,593.85,396.29)" stroke-width="12" stroke-linecap="round" stroke-linejoin="round" fill="none" stroke="#000000" d="M11.47607 .54807C11.18045 3.92976 8.19545 6.85859 3.87942 8.00175"/>
<path transform="matrix(-.059672398,-.0062586,-.0062586,.059672398,594.20999,394.97)" stroke-width="12" stroke-linecap="round" stroke-linejoin="round" fill="none" stroke="#000000" d="M11.48319 .29726C11.27732 2.11637 9.20137 3.7687 5.93958 4.70963"/>
<path transform="matrix(-.0586788,-.0125226,-.0125226,.0586788,594.45,393.29)" stroke-width="12" stroke-linecap="round" stroke-linejoin="round" fill="none" stroke="#000000" d="M11.48186 .25269C11.25922 1.8017 9.01312 3.19659 5.53835 3.94377"/>
</g>
<g inkscape:groupmode="layer" inkscape:label="Visible">
<path transform="matrix(-.06,-0,0,.06,624.51,359.75)" stroke-width="24" stroke-linecap="round" stroke-linejoin="round" fill="none" stroke="#000000" d="M-439.68794 99.77543C-466.56846 60.37621-477.1602 17.9066-470.62309-24.26464"/>
<path transform="matrix(.06,0,0,-.06,0,842)" stroke-width="24" stroke-linecap="round" stroke-linejoin="round" fill="none" stroke="#000000" d="M9937.877 8061.7648C9931.34 8019.5935 9941.932 7977.124 9968.8129 7937.7248"/>
</g>
<g inkscape:groupmode="layer" inkscape:label="Visible Narrow">
<path transform="matrix(-.06,-0,0,.06,624.57,355.73)" stroke-width="12" stroke-linecap="round" stroke-linejoin="round" fill="none" stroke="#000000" d="M-267.63993-154.50284C-119.82646-239.8324 119.82646-239.8324 267.63993-154.50284 415.45338-69.17327 415.45338 69.17327 267.63993 154.50284 119.82646 239.8324-119.82646 239.8324-267.63993 154.50284-415.45338 69.17327-415.45338-69.17327-267.63993-154.50284"/>
</g>
<g inkscape:groupmode="layer" inkscape:label="Visible">
<path transform="matrix(.06,0,0,-.06,0,842)" stroke-width="24" stroke-linecap="round" stroke-linejoin="round" fill="none" stroke="#000000" d="M9416 7911V7922L9417 7932V7942L9418 7953 9419 7963 9420 7973 9422 7983 9423 7994 9425 8004 9427 8014 9429 8024 9432 8034 9434 8044 9437 8054 9440 8064 9444 8073 9447 8083 9451 8092 9454 8102 9458 8111 9462 8121 9467 8130 9471 8139 9476 8148 9480 8157 9485 8165 9490 8174 9496 8183 9501 8191 9506 8199 9512 8208 9518 8216 9524 8224 9530 8232 9536 8240 9542 8247 9548 8255 9555 8263 9562 8270 9568 8277 9582 8292 9596 8306 9610 8319 9625 8332 9640 8345 9656 8358 9672 8370 9688 8381 9704 8393 9721 8404 9738 8414 9756 8424 9773 8434 9791 8444 9809 8453 9828 8462 9846 8471 9865 8479 9884 8487 9903 8495 9923 8502 9943 8509 9962 8516 9982 8522 10003 8528 10023 8534 10044 8539 10064 8544 10085 8549 10106 8554 10127 8558 10148 8562 10170 8565 10191 8568 10212 8571 10234 8574 10256 8576 10277 8578 10299 8580 10321 8581 10343 8583H10365L10387 8584H10409 10430L10452 8583H10474L10496 8581 10518 8580 10540 8578 10561 8576 10583 8574 10605 8571 10626 8568 10647 8565 10669 8562 10690 8558 10711 8554 10732 8549 10753 8544 10773 8539 10794 8534 10814 8528 10835 8522 10855 8516 10874 8509 10894 8502 10914 8495 10933 8487 10952 8479 10971 8471 10989 8462 11008 8453 11026 8444 11044 8434 11061 8424 11079 8414 11096 8404 11113 8393 11129 8381 11145 8370 11161 8358 11177 8345 11192 8332 11207 8319 11221 8306 11235 8292 11249 8277 11255 8270 11262 8263 11268 8255 11275 8248 11281 8240 11287 8232 11293 8224 11299 8216 11305 8208 11310 8199 11316 8191 11321 8183 11327 8174 11332 8165 11336 8157 11341 8148 11346 8139 11350 8130 11355 8121 11359 8111 11363 8102 11366 8092 11370 8083 11373 8073 11377 8064 11380 8054 11383 8044 11385 8034 11388 8024 11390 8014 11392 8004 11394 7994 11395 7983 11397 7973 11398 7963 11399 7953 11400 7942V7932L11401 7922V7911 7760 7753 7746L11400 7738V7731L11399 7724 11398 7716 11397 7709 11396 7702 11395 7694 11393 7687 11391 7680 11390 7672 11388 7665 11386 7658 11383 7651 11381 7644 11376 7629 11370 7615 11363 7601 11356 7587 11349 7573 11341 7560 11332 7546 11323 7533 11313 7519 11303 7506 11292 7493 11280 7481 11268 7468 11256 7456 11243 7444 11229 7432 11216 7420 11201 7409 11186 7397 11171 7386 11155 7375 11139 7365 11122 7355 11105 7344 11088 7335 11070 7325 11052 7316 11033 7307 11014 7298 10995 7289 10975 7281 10955 7273 10935 7266 10914 7258 10893 7251 10872 7245 10851 7238 10829 7232 10807 7226 10785 7221 10762 7216 10740 7211 10717 7206 10694 7202 10671 7198 10647 7195 10624 7191 10600 7188 10576 7186 10553 7184 10529 7182 10505 7180 10481 7179 10457 7178H10433L10408 7177 10384 7178H10360L10336 7179 10312 7180 10288 7182 10264 7184 10241 7186 10217 7188 10193 7191 10170 7195 10146 7198 10123 7202 10100 7206 10077 7211 10055 7216 10032 7221 10010 7226 9988 7232 9966 7238 9945 7245 9924 7251 9903 7258 9882 7266 9862 7273 9842 7281 9822 7289 9803 7298 9784 7307 9765 7316 9747 7325 9729 7335 9712 7344 9695 7355 9678 7365 9662 7375 9646 7386 9631 7397 9616 7409 9601 7420 9588 7432 9574 7444 9561 7456 9549 7468 9537 7481 9525 7493 9514 7506 9504 7519 9494 7533 9485 7546 9476 7560 9468 7573 9461 7587 9454 7601 9450 7608 9447 7615 9444 7622 9441 7629 9439 7636 9436 7644 9434 7651 9431 7658 9429 7665 9427 7672 9426 7680 9424 7687 9422 7694 9421 7702 9420 7709 9419 7716 9418 7724 9417 7731V7738L9416 7746V7753 7760 7911"/>
<path transform="matrix(.06,0,0,-.06,0,842)" stroke-width="24" stroke-linecap="round" stroke-linejoin="round" fill="none" stroke="#000000" d="M10905 8054V8049L10904 8043V8038L10903 8033 10902 8027 10901 8022 10899 8016 10897 8011 10895 8005 10893 8000 10891 7994 10888 7989 10885 7983 10881 7978 10878 7972 10874 7967 10870 7961 10865 7955 10860 7950 10855 7944 10850 7938 10844 7933 10838 7927 10832 7922 10825 7916 10819 7911 10812 7905 10804 7900 10797 7895 10789 7890 10781 7885 10772 7880 10763 7875 10754 7870 10745 7865 10736 7861 10726 7856 10716 7852 10706 7848 10696 7844 10686 7840 10675 7836 10664 7832 10653 7829 10642 7825 10631 7822 10619 7819 10608 7816 10596 7814 10584 7811 10572 7809 10560 7806 10548 7804 10535 7802 10523 7801 10510 7799 10498 7798 10485 7797 10472 7796 10460 7795 10447 7794H10434 10421L10408 7793 10396 7794H10383 10370L10357 7795 10345 7796 10332 7797 10319 7798 10307 7799 10294 7801 10282 7802 10269 7804 10257 7806 10245 7809 10233 7811 10221 7814 10209 7816 10198 7819 10186 7822 10175 7825 10164 7829 10153 7832 10142 7836 10131 7840 10121 7844 10111 7848 10100 7852 10091 7856 10081 7861 10072 7865 10062 7870 10054 7875 10045 7880 10037 7885 10028 7890 10020 7895 10013 7900 10005 7905 9998 7911 9992 7916 9985 7922 9979 7927 9973 7933 9967 7938 9962 7944 9957 7950 9952 7955 9947 7961 9943 7967 9939 7972 9936 7978 9932 7983 9929 7989 9926 7995 9924 8000 9922 8006 9920 8011 9918 8017 9916 8022 9915 8027 9914 8033 9913 8038V8043L9912 8049V8054"/>
<path transform="matrix(.06,0,0,-.06,0,842)" stroke-width="24" stroke-linecap="round" stroke-linejoin="round" fill="none" stroke="#000000" d="M9612 7706 9615 7707 9617 7708 9619 7709 9621 7710H9623L9626 7711H9628 9630 9632L9634 7710H9636L9638 7709H9639L9641 7708 9643 7707 9645 7705 9656 7696 9668 7687 9680 7679 9692 7670 9705 7661 9718 7653 9731 7645 9745 7637 9759 7629 9773 7622 9787 7614 9802 7607 9817 7600 9832 7593 9847 7586 9863 7579"/>
<path transform="matrix(.06,0,0,-.06,0,842)" stroke-width="24" stroke-linecap="round" stroke-linejoin="round" fill="none" stroke="#000000" d="M9874 7420 9876 7421 9878 7422 9880 7424 9881 7425 9883 7427 9884 7429 9885 7431 9886 7433 9888 7437 9889 7439V7441L9890 7444V7446L9891 7449V7451L9892 7459 9893 7466 9894 7473 9896 7481V7484L9897 7488V7491L9898 7495V7499 7502 7506 7510 7514L9897 7517V7521 7525L9896 7529 9895 7533 9894 7536 9893 7540 9892 7543 9891 7547 9890 7550 9888 7553 9887 7556 9885 7559 9883 7562 9881 7565 9879 7567 9877 7569 9875 7572 9873 7574 9870 7575 9868 7577 9865 7578 9863 7579"/>
<path transform="matrix(.06,0,0,-.06,0,842)" stroke-width="24" stroke-linecap="round" stroke-linejoin="round" fill="none" stroke="#000000" d="M10879 8061 10878 8070 10876 8078 10874 8087 10871 8095 10868 8103 10865 8112 10862 8120 10858 8128 10854 8135 10850 8143 10845 8150 10841 8158 10836 8165 10831 8172 10825 8179 10820 8185 10814 8192 10808 8198 10802 8205 10796 8211 10789 8217 10783 8222 10776 8228 10769 8233 10762 8239 10754 8244 10747 8249 10740 8254 10732 8258 10724 8263 10716 8268 10708 8272 10700 8276 10692 8280 10684 8284 10675 8288 10666 8292 10658 8295 10649 8298 10640 8302 10631 8305 10622 8308 10613 8311 10604 8313 10595 8316 10585 8318 10576 8321 10566 8323 10557 8325 10547 8327 10537 8329 10528 8330 10518 8332 10508 8333 10498 8335 10488 8336 10478 8337 10469 8338H10459L10449 8339 10439 8340H10429 10419 10408 10398 10388 10378L10368 8339 10358 8338H10348L10339 8337 10329 8336 10319 8335 10309 8333 10299 8332 10289 8330 10280 8329 10270 8327 10260 8325 10251 8323 10241 8321 10232 8318 10222 8316 10213 8313 10204 8311 10195 8308 10186 8305 10177 8302 10168 8298 10159 8295 10151 8292 10142 8288 10133 8284 10125 8280 10117 8276 10109 8272 10101 8268 10093 8263 10085 8258 10077 8254 10070 8249 10062 8244 10055 8239 10048 8233 10041 8228 10034 8222 10028 8217 10021 8211 10015 8205 10009 8198 10003 8192 9997 8185 9992 8179 9986 8172 9981 8165 9976 8158 9972 8150 9967 8143 9963 8135 9959 8128 9955 8120 9952 8112 9949 8103 9946 8095 9943 8087 9941 8078 9939 8070 9938 8061"/>
<path transform="matrix(.06,0,0,-.06,0,842)" stroke-width="24" stroke-linecap="round" stroke-linejoin="round" fill="none" stroke="#000000" d="M10885.972 8356.124C10890.784 8363.42 10886.835 8371.725 10876.304 8376.453 10865.773 8381.183 10851.227 8381.183 10840.696 8376.453 10830.165 8371.725 10826.216 8363.42 10831.028 8356.124"/>
</g>
<g inkscape:groupmode="layer" inkscape:label="Visible Narrow">
<path transform="matrix(.06,0,0,-.06,0,842)" stroke-width="12" stroke-linecap="round" stroke-linejoin="round" fill="none" stroke="#000000" d="M9788.938 7303.942C10148.293 7130.686 10670.707 7130.686 11030.062 7303.942"/>
<path transform="matrix(-.06,-0,0,.06,624.57,379.13)" stroke-width="12" stroke-linecap="round" stroke-linejoin="round" fill="none" stroke="#000000" d="M980.2866 89.53705C903.931 367.68843 488.21788 572.5 0 572.5-488.21788 572.5-903.931 367.68843-980.2866 89.53705"/>
<path transform="matrix(-.06,-0,0,.06,624.57,395.33003)" stroke-width="12" stroke-linecap="round" stroke-linejoin="round" fill="none" stroke="#000000" d="M980.2866 89.53705C903.931 367.68843 488.21788 572.5 0 572.5-488.21788 572.5-903.931 367.68843-980.2866 89.53705"/>
</g>
<g inkscape:groupmode="layer" inkscape:label="Visible">
<path transform="matrix(.06,0,0,-.06,0,842)" stroke-width="24" stroke-linecap="round" stroke-linejoin="round" fill="none" stroke="#000000" d="M9416 7714V7726L9417 7737"/>
<path transform="matrix(.06,0,0,-.06,0,842)" stroke-width="24" stroke-linecap="round" stroke-linejoin="round" fill="none" stroke="#000000" d="M11400 7737 11401 7726V7714 7444"/>
<path transform="matrix(.06,0,0,-.06,0,842)" stroke-width="24" stroke-linecap="round" stroke-linejoin="round" fill="none" stroke="#000000" d="M9416 7714V7444 7436 7427L9417 7419 9418 7411V7403L9419 7394 9420 7386 9422 7378 9423 7370 9425 7362 9427 7354 9429 7346 9431 7337 9433 7329 9436 7321 9438 7314 9441 7306 9444 7298 9447 7290 9450 7282 9454 7274 9457 7267 9461 7259 9465 7252 9469 7244 9473 7237 9478 7229 9482 7222 9487 7215 9491 7207 9496 7200 9501 7193 9512 7179 9523 7165 9534 7152 9546 7138 9559 7125 9572 7112 9585 7100 9599 7088 9613 7075 9628 7064 9643 7052 9659 7041 9675 7030 9691 7019 9708 7009 9725 6999 9742 6989 9760 6979 9778 6970 9797 6961 9816 6952 9835 6944 9854 6936 9874 6928 9894 6920 9915 6913 9935 6906 9956 6900 9977 6893 9999 6887 10020 6882 10042 6876 10064 6871 10086 6866 10108 6862 10131 6858 10153 6854 10176 6851 10199 6847 10222 6845 10245 6842 10268 6840 10292 6838 10315 6837 10338 6836 10362 6835 10385 6834H10408 10432L10455 6835 10479 6836 10502 6837 10525 6838 10549 6840 10572 6842 10595 6845 10618 6847 10641 6851 10664 6854 10686 6858 10709 6862 10731 6866 10753 6871 10775 6876 10797 6882 10818 6887 10840 6893 10861 6900 10882 6906 10902 6913 10923 6920 10943 6928 10963 6936 10982 6944 11001 6952 11020 6961 11039 6970 11057 6979 11075 6989 11092 6999 11109 7009 11126 7019 11142 7030 11158 7041 11174 7052 11189 7064 11204 7075 11218 7088 11232 7100 11245 7112 11258 7125 11271 7138 11283 7152 11294 7165 11305 7179 11316 7193 11326 7207 11330 7215 11335 7222 11339 7229 11344 7237 11348 7244 11352 7252 11356 7259 11360 7267 11363 7274 11367 7282 11370 7290 11373 7298 11376 7306 11379 7314 11381 7321 11384 7329 11386 7337 11388 7346 11390 7354 11392 7362 11394 7370 11395 7378 11397 7386 11398 7394 11399 7403V7411L11400 7419 11401 7427V7436 7444"/>
</g>
</g>
</svg>
